<?xml version="1.0" encoding="UTF-8"?>
<!DOCTYPE svg PUBLIC "-//W3C//DTD SVG 1.1//EN" "http://www.w3.org/Graphics/SVG/1.1/DTD/svg11.dtd">
<!-- Creator: CorelDRAW 2019 (64 Bit) -->
<svg xmlns="http://www.w3.org/2000/svg" xml:space="preserve" width="37.277mm" height="38.044mm" version="1.1" style="shape-rendering:geometricPrecision; text-rendering:geometricPrecision; image-rendering:optimizeQuality; fill-rule:evenodd; clip-rule:evenodd"
viewBox="0 0 3727.7 3804.4"
 xmlns:xlink="http://www.w3.org/1999/xlink"
 xmlns:xodm="http://www.corel.com/coreldraw/odm/2003">
 <defs>
  <style type="text/css">
   <![CDATA[
    .fil0 {fill:#0058E4}
    .fil1 {fill:#FEFEFE;fill-rule:nonzero}
   ]]>
  </style>
 </defs>
 <g id="Camada_x0020_1">
  <metadata id="CorelCorpID_0Corel-Layer"/>
  <g id="_2101028896160">
   <rect class="fil0" x="-2.87" y="41.12" width="3727.7" height="3727.7" rx="430.04" ry="430.04"/>
   <g>
    <path class="fil1" d="M1821.9 742.56c294.67,0 515.54,64.05 662.61,192.1 146.54,128.63 219.78,310.97 219.78,547.03 0,105.83 -15.18,207.85 -45.02,305.52 -30.4,97.14 -79.77,183.97 -148.17,260.49 -68.36,76.52 -159,136.76 -271.86,181.26 -112.89,44.49 -251.81,66.74 -417.34,66.74l-176.35 0 0 771.69 -627.88 0 0 -2324.83 804.23 0zm-14.1 507.39l-162.25 0 0 534.01 124.26 0c53.74,0 104.2,-9.22 150.85,-28.21 46.68,-18.47 84.14,-48.31 112.36,-90.64 27.65,-41.78 41.78,-97.68 41.78,-167.7 0,-72.71 -21.72,-132.39 -65.12,-178.53 -43.43,-46.12 -110.7,-68.93 -201.88,-68.93z"/>
    <polygon class="fil1" points="2073.17,3067.39 2073.17,2436.39 2704.29,2436.39 2704.29,3067.39 "/>
   </g>
  </g>
 </g>
</svg>
